# xmcd CD database file
#
# Track frame offsets:
#	150
#	8657
#	33764
#	57516
#	71422
#	90153
#	108285
#	126648
#	147066
#	164572
#	182343
#	206469
#	228444
#	243346
#	256826
#	277679
#	292712
#	309521
#	330187
#
# Disc length: 4647 seconds
#
# Revision: 1
# Processed by: cddbd v1.5PL3 Copyright (c) Steve Scherf et al.
# Submitted via: CDex 1.50
#
DISCID=ee122513
DTITLE=Patricia Kaas - All Gold Of The World
DYEAR=1900
DGENRE=Jazz
TTITLE0=Y"Avait Tant D"Itoiles
TTITLE1=Hotel Normandy
TTITLE2=Celix Qui N'Ont Rein
TTITLE3=A L'Enterrement De Sidney Bechet
TTITLE4=Bessie
TTITLE5=Tropic Blues Bar
TTITLE6=La Liberte
TTITLE7=Fatiguie D'Attendre
TTITLE8=Les Mannequins D'Osier
TTITLE9=L'Huere Du Jazz
TTITLE10=Il Me Dit Que Je Suis Belle
TTITLE11=Space InMy Heart
TTITLE12=Kennedy Rose
TTITLE13=Une Derniere Semaine A New York
TTITLE14=Je Retiens Mon Souffle
TTITLE15=Jojo
TTITLE16=Je Te Dis Vous
TTITLE17=Reste Sur Moi
TTITLE18=Entrer Dans La Lumiere
EXTD=
EXTT0=
EXTT1=
EXTT2=
EXTT3=
EXTT4=
EXTT5=
EXTT6=
EXTT7=
EXTT8=
EXTT9=
EXTT10=
EXTT11=
EXTT12=
EXTT13=
EXTT14=
EXTT15=
EXTT16=
EXTT17=
EXTT18=
PLAYORDER=
